<svg xmlns="http://www.w3.org/2000/svg" width="36" height="36" viewBox="0 0 36 36" fill="none">
  <path d="M10.8779 0.312988L14.0084 3.28689C15.1823 4.38254 15.8084 5.86951 15.8084 7.51299C15.8084 9.0782 16.4345 10.5652 17.5301 11.6608L17.9214 12.0521L21.5214 0.391242" fill="#1D777D"/>
  <path d="M0.234375 10.7217L4.53872 10.5652C6.10394 10.4869 7.66915 11.113 8.7648 12.2086C9.86046 13.3043 11.3474 13.8521 12.9126 13.8521H13.4605L7.66916 3.13037" fill="#1D777D"/>
  <path d="M0.234785 25.5913L3.13043 22.4609C4.22609 21.287 5.71305 20.5826 7.27826 20.5826C8.84348 20.5826 10.2522 19.8783 11.3478 18.7826L11.7391 18.3913L0 15.0261" fill="#1D777D"/>
  <path d="M10.8787 35.9218L10.6439 31.6174C10.5656 30.0522 11.1135 28.487 12.2091 27.3131C13.2265 26.2174 13.8526 24.6522 13.7743 23.1653V22.6174L3.13086 28.6435" fill="#1D777D"/>
  <path d="M25.7478 35.6087L22.5391 32.7913C21.3652 31.7739 20.6609 30.287 20.5826 28.6435C20.5044 27.0783 19.8 25.6696 18.7044 24.5739L18.3131 24.1826L15.1826 36" fill="#1D777D"/>
  <path d="M35.9217 24.7305L31.6173 25.0435C30.0521 25.2001 28.4869 24.6522 27.313 23.5566C26.1391 22.5392 24.6521 21.9914 23.0869 22.0696H22.5391L28.7999 32.5566" fill="#1D777D"/>
  <path d="M35.2175 9.93921L32.4784 13.2262C31.461 14.4001 29.9741 15.1827 28.4088 15.261C26.8436 15.3392 25.4349 16.0436 24.4175 17.2175L24.1045 17.6088L36.0001 20.4262" fill="#1D777D"/>
  <path d="M24.1825 0L24.5738 4.30435C24.7303 5.86957 24.2608 7.43479 23.1651 8.68696C22.1477 9.86087 21.6782 11.3478 21.7564 12.913L21.8347 13.4609L32.1651 6.96522" fill="#1D777D"/>
</svg>